<?xml version="1.0" encoding="UTF-8"?>
<svg width="3178px" height="1137px" viewBox="0 0 3178 1137" version="1.1" xmlns="http://www.w3.org/2000/svg" xmlns:xlink="http://www.w3.org/1999/xlink">
    <!-- Generator: Sketch 43.2 (39069) - http://www.bohemiancoding.com/sketch -->
    <title>Group 2</title>
    <desc>Created with Sketch.</desc>
    <defs>
        <circle id="path-1" cx="566.5" cy="566.5" r="566.5"></circle>
    </defs>
    <g id="Page-2" stroke="none" stroke-width="1" fill="none" fill-rule="evenodd">
        <g id="Group-2" transform="translate(2.000000, 2.000000)">
            <g id="Group">
                <mask id="mask-2" fill="white">
                    <use xlink:href="#path-1"></use>
                </mask>
                <use id="Oval" stroke="#4F99EE" stroke-width="3" fill="#4F99EE" xlink:href="#path-1"></use>
                <path d="M417.862211,348.435384 C417.862211,364.695196 431.087157,377.865643 447.41425,377.865643 C463.741344,377.865643 476.96629,364.695196 476.96629,348.435384 C476.96629,332.175572 463.741344,319.005125 447.41425,319.005125 C431.087157,319.005125 417.862211,332.175572 417.862211,348.435384 L417.862211,348.435384 L417.862211,348.435384 Z M527.553069,846.717314 C527.553069,939.371141 596.779946,1015.90065 686.551749,1027.82452 C675.830291,1028.8814 664.972774,1029.4505 653.979197,1029.4505 C474.979827,1029.4505 329.859176,884.927871 329.859176,706.639036 L329.859176,392.77047 L330.07687,384.369568 L203.596318,311.63401 L351.791905,311.63401 C379.874506,263.640466 432.121206,231.33764 491.932792,231.33764 C563.55431,231.256341 629.107591,278.84339 648.509621,351.009854 L703.014902,553.580008 L1613.95788,883.762585 C1556.02391,971.511369 1456.29258,1029.4505 1342.92813,1029.4505 L960.738076,1029.4505 C781.711494,1029.4505 636.618054,884.927871 636.618054,706.639036 L636.618054,679.674848 C572.370941,708.102419 527.553069,772.193177 527.553069,846.717314 Z" id="Shape" fill="#FFFFFF" mask="url(#mask-2)"></path>
            </g>
            <path d="M1312.63672,411.007812 L1313.80859,462.570312 C1325.5274,443.429592 1340.17569,429.074267 1357.75391,419.503906 C1375.33212,409.933546 1394.86317,405.148438 1416.34766,405.148438 C1466.34791,405.148438 1498.08587,425.656045 1511.5625,466.671875 C1522.89068,446.945214 1538.02725,431.759819 1556.97266,421.115234 C1575.91806,410.47065 1596.81629,405.148438 1619.66797,405.148438 C1687.63706,405.148438 1722.30468,442.257441 1723.67188,516.476562 L1723.67188,728 L1688.51562,728 L1688.51562,519.113281 C1688.32031,490.792827 1682.21686,469.796943 1670.20508,456.125 C1658.1933,442.453057 1638.61342,435.617188 1611.46484,435.617188 C1586.26941,436.007814 1564.98056,444.16203 1547.59766,460.080078 C1530.21476,475.998126 1520.54688,495.382698 1518.59375,518.234375 L1518.59375,728 L1483.4375,728 L1483.4375,516.476562 C1483.24219,489.327989 1476.84577,469.06452 1464.24805,455.685547 C1451.65033,442.306574 1432.26576,435.617188 1406.09375,435.617188 C1384.02333,435.617188 1365.0782,441.915953 1349.25781,454.513672 C1333.43742,467.111391 1321.71879,485.812376 1314.10156,510.617188 L1314.10156,728 L1278.94531,728 L1278.94531,411.007812 L1312.63672,411.007812 Z M2012.53906,728 C2009.02342,718.039013 2006.77735,703.293066 2005.80078,683.761719 C1993.49603,699.777424 1977.82236,712.130816 1958.7793,720.822266 C1939.73623,729.513715 1919.57042,733.859375 1898.28125,733.859375 C1867.81235,733.859375 1843.15439,725.363366 1824.30664,708.371094 C1805.45889,691.378821 1796.03516,669.894661 1796.03516,643.917969 C1796.03516,613.058439 1808.87682,588.644621 1834.56055,570.675781 C1860.24427,552.706941 1896.03493,543.722656 1941.93359,543.722656 L2005.50781,543.722656 L2005.50781,507.6875 C2005.50781,485.031137 1998.52546,467.209049 1984.56055,454.220703 C1970.59563,441.232357 1950.23451,434.738281 1923.47656,434.738281 C1899.06238,434.738281 1878.84774,440.988219 1862.83203,453.488281 C1846.81633,465.988344 1838.80859,481.027256 1838.80859,498.605469 L1803.65234,498.3125 C1803.65234,473.117062 1815.37098,451.291108 1838.80859,432.833984 C1862.24621,414.376861 1891.05452,405.148438 1925.23438,405.148438 C1960.58611,405.148438 1988.46669,413.98624 2008.87695,431.662109 C2029.28721,449.337979 2039.78515,473.995936 2040.37109,505.636719 L2040.37109,655.636719 C2040.37109,686.300935 2043.59372,709.249924 2050.03906,724.484375 L2050.03906,728 L2012.53906,728 Z M1902.38281,702.804688 C1925.82043,702.804688 1946.76749,697.140682 1965.22461,685.8125 C1983.68173,674.484318 1997.10933,659.347751 2005.50781,640.402344 L2005.50781,570.675781 L1942.8125,570.675781 C1907.85139,571.066408 1880.50791,577.462829 1860.78125,589.865234 C1841.05459,602.26764 1831.19141,619.308485 1831.19141,640.988281 C1831.19141,658.761808 1837.78314,673.507754 1850.9668,685.226562 C1864.15046,696.945371 1881.28896,702.804688 1902.38281,702.804688 Z M2119.76562,566.574219 C2119.76562,516.964596 2130.75184,477.658348 2152.72461,448.654297 C2174.69738,419.650246 2204.53106,405.148438 2242.22656,405.148438 C2285.39084,405.148438 2318.20301,422.335766 2340.66406,456.710938 L2342.42188,411.007812 L2375.23438,411.007812 L2375.23438,721.554688 C2375.23438,762.375204 2363.80871,794.6991 2340.95703,818.527344 C2318.10535,842.355588 2287.14863,854.269531 2248.08594,854.269531 C2226.01551,854.269531 2204.9708,849.33794 2184.95117,839.474609 C2164.93154,829.611279 2149.16021,816.476645 2137.63672,800.070312 L2157.26562,778.976562 C2182.07044,809.445465 2211.56233,824.679688 2245.74219,824.679688 C2275.03921,824.679688 2297.89054,816.037196 2314.29688,798.751953 C2330.70321,781.46671 2339.19922,757.492341 2339.78516,726.828125 L2339.78516,686.984375 C2317.32411,718.234531 2284.60959,733.859375 2241.64062,733.859375 C2204.92169,733.859375 2175.4298,719.211084 2153.16406,689.914062 C2130.89833,660.617041 2119.76562,621.066655 2119.76562,571.261719 L2119.76562,566.574219 Z M2155.21484,572.726562 C2155.21484,613.156452 2163.32023,645.040899 2179.53125,668.380859 C2195.74227,691.72082 2218.5936,703.390625 2248.08594,703.390625 C2291.25022,703.390625 2321.81632,684.054881 2339.78516,645.382812 L2339.78516,498.019531 C2331.58199,477.70693 2319.7657,462.228569 2304.33594,451.583984 C2288.90617,440.9394 2270.35167,435.617188 2248.67188,435.617188 C2219.17954,435.617188 2196.23055,447.189337 2179.82422,470.333984 C2163.41789,493.478631 2155.21484,527.609149 2155.21484,572.726562 Z M2721.52344,572.726562 C2721.52344,622.140872 2710.58605,661.349464 2688.71094,690.353516 C2666.83583,719.357567 2637.53925,733.859375 2600.82031,733.859375 C2557.46072,733.859375 2524.25793,718.625152 2501.21094,688.15625 L2501.21094,849.875 L2466.34766,849.875 L2466.34766,411.007812 L2498.86719,411.007812 L2500.625,455.832031 C2523.47668,422.0428 2556.58181,405.148438 2599.94141,405.148438 C2637.83222,405.148438 2667.56825,419.503763 2689.15039,448.214844 C2710.73253,476.925925 2721.52344,516.769276 2721.52344,567.746094 L2721.52344,572.726562 Z M2686.36719,566.574219 C2686.36719,526.144329 2678.06649,494.211055 2661.46484,470.773438 C2644.8632,447.33582 2621.7189,435.617188 2592.03125,435.617188 C2570.54677,435.617188 2552.08992,440.792917 2536.66016,451.144531 C2521.23039,461.496146 2509.4141,476.535058 2501.21094,496.261719 L2501.21094,648.3125 C2509.60942,666.476653 2521.62102,680.343702 2537.24609,689.914062 C2552.87117,699.484423 2571.32802,704.269531 2592.61719,704.269531 C2622.10952,704.269531 2645.10734,692.502071 2661.61133,668.966797 C2678.11532,645.431523 2686.36719,611.301005 2686.36719,566.574219 Z M2838.41797,728 L2803.26172,728 L2803.26172,411.007812 L2838.41797,411.007812 L2838.41797,728 Z M2797.10938,319.308594 C2797.10938,312.667936 2799.25779,307.052757 2803.55469,302.462891 C2807.85158,297.873024 2813.7109,295.578125 2821.13281,295.578125 C2828.55472,295.578125 2834.46287,297.873024 2838.85742,302.462891 C2843.25198,307.052757 2845.44922,312.667936 2845.44922,319.308594 C2845.44922,325.949252 2843.25198,331.515603 2838.85742,336.007812 C2834.46287,340.500022 2828.55472,342.746094 2821.13281,342.746094 C2813.7109,342.746094 2807.85158,340.500022 2803.55469,336.007812 C2799.25779,331.515603 2797.10938,325.949252 2797.10938,319.308594 Z M3056.38672,733.859375 C3029.43346,733.859375 3005.06847,727.218816 2983.29102,713.9375 C2961.51356,700.656184 2944.57037,682.150509 2932.46094,658.419922 C2920.3515,634.689334 2914.29688,608.078272 2914.29688,578.585938 L2914.29688,565.988281 C2914.29688,535.519379 2920.20502,508.078247 2932.02148,483.664062 C2943.83795,459.249878 2960.29286,440.060617 2981.38672,426.095703 C3002.48057,412.13079 3025.33191,405.148438 3049.94141,405.148438 C3088.41816,405.148438 3118.93543,418.283072 3141.49414,444.552734 C3164.05285,470.822397 3175.33203,506.71071 3175.33203,552.21875 L3175.33203,571.847656 L2949.16016,571.847656 L2949.16016,578.585938 C2949.16016,614.523617 2959.46279,644.454958 2980.06836,668.380859 C3000.67393,692.30676 3026.60141,704.269531 3057.85156,704.269531 C3076.60166,704.269531 3093.15423,700.851597 3107.50977,694.015625 C3121.86531,687.179653 3134.90229,676.242263 3146.62109,661.203125 L3168.59375,677.902344 C3142.81237,715.207218 3105.4104,733.859375 3056.38672,733.859375 Z M3049.94141,435.03125 C3023.57409,435.03125 3001.35751,444.699122 2983.29102,464.035156 C2965.22452,483.37119 2954.2383,509.347493 2950.33203,541.964844 L3140.46875,541.964844 L3140.46875,538.15625 C3139.49218,507.687348 3130.80086,482.882908 3114.39453,463.742188 C3097.9882,444.601467 3076.50404,435.03125 3049.94141,435.03125 Z" id="magpie" stroke="#FFFFFF" fill="#FFFFFF"></path>
        </g>
    </g>
</svg>